<svg data-v-0dd9719b="" version="1.0" xmlns="http://www.w3.org/2000/svg" xmlns:xlink="http://www.w3.org/1999/xlink" width="100%" height="100%" viewBox="0 0 340.000000 250.000000" preserveAspectRatio="xMidYMid meet" color-interpolation-filters="sRGB" style="margin: auto;"> <rect data-v-0dd9719b="" x="0" y="0" width="100%" height="100%" fill="#fff" fill-opacity="1" class="background"></rect> <rect data-v-0dd9719b="" x="0" y="0" width="100%" height="100%" fill="url(#watermark)" fill-opacity="1" class="watermarklayer"></rect> <g data-v-0dd9719b="" fill="#333" class="icon-text-wrapper icon-svg-group iconsvg" transform="translate(48.56999969482422,90.81040573126361)"><g class="iconsvg-imagesvg" transform="translate(0,0)"><g><rect fill="#333" fill-opacity="0" stroke-width="2" x="0" y="0" width="60" height="68.37918537597156" class="image-rect"></rect> <svg x="0" y="0" width="60" height="68.37918537597156" filtersec="colorsb8145950704" class="image-svg-svg primary" style="overflow: visible;"><svg xmlns="http://www.w3.org/2000/svg" viewBox="-0.007360535208135843 0.0010135173797607422 111.84981536865234 127.47058868408203"><path d="M95.11 101.14c.89 3.32-1.26 5.2-4.32 6.92q-16.14 9.1-32.09 18.55a4.74 4.74 0 0 1-5.45 0Q27.89 111.85 2.4 97.25A4.22 4.22 0 0 1 0 93.19V33.85c0-2.13 1.05-3.25 2.7-4.19q13.5-7.76 27-15.54A76.46 76.46 0 0 0 36.56 10c2.2-1.61 4-1 5.9.34 1.57 1.11 4.35 1.58 4.38 3.5s-2.69 2.3-4.26 3.22q-15.48 9.09-31.06 18A4.29 4.29 0 0 0 9 39.26q.09 24.2 0 48.37a4.62 4.62 0 0 0 2.68 4.48Q32.9 104.28 54 116.58a3.32 3.32 0 0 0 3.82 0q16.62-9.77 33.32-19.39c1-.61 2.18-1.94 3.42-1.15 1.05.66.39 2.21.51 3.36.08.43.04.83.04 1.74zM111.77 63.69v28.78c0 2.85-4.92 7.63-7.75 7.61-1 0-1.16-.61-1.2-1.36s0-1.77 0-2.66V40.27c0-2.68-.77-4.29-3.17-5.66-16.57-9.47-33-19.1-49.55-28.67-2.82-1.63-2.77-1.86-.1-3.65 3.5-2.38 6.5-3.35 10.85-.71 15.63 9.5 31.57 18.48 47.46 27.53 2.55 1.45 3.59 3.11 3.53 6.1-.19 9.49-.07 18.98-.07 28.48z" fill="#2297d1"></path><path d="M78.46 73.5c0 6.23-.11 12.47.05 18.7a5.39 5.39 0 0 1-3.35 5.6c-5.73 2.88-5.68 3-5.68-3.58V58.89a4.66 4.66 0 0 0-2.73-4.68c-11.1-6.29-22.13-12.73-33.16-19.13-3.12-1.81-2.87-1.84-.07-4C37.51 28 40.7 28.32 44.93 31c9.94 6.27 20.27 12 30.53 17.72a5.4 5.4 0 0 1 3 5.49c-.09 6.42 0 12.86 0 19.29z" fill="#2297d1"></path><path d="M95.11 63.48c0 6-.18 12.07.07 18.09.14 3.27-.65 5.6-3.82 6.78-1.61.59-3 2.89-4.64 1.88-1.41-.87-.57-3.13-.58-4.77 0-12-.08-23.93 0-35.89a5.39 5.39 0 0 0-3.14-5.4c-11-6.23-21.9-12.59-32.85-18.93-.81-.47-2.1-.65-2.06-1.85s1.3-1.34 2-1.93c3.68-2.92 7.09-2.84 11.22-.3 10.35 6.37 21 12.27 31.53 18.32a4.17 4.17 0 0 1 2.24 4.12c-.01 6.63.03 13.25.03 19.88zM61.84 82.61v19.27c0 3.21-2.45 6.25-5.52 6.53-2.29.21-3.42-1.22-3.44-3.47V94.86c0-8.5-.11-17 .06-25.5a5.88 5.88 0 0 0-3.35-5.93C39.6 57.81 29.7 52 19.74 46.37c-2.15-1.23-4-2.54-2.64-5.31 1-2.12 5.53-3.58 7.47-2.47C36.39 45.36 48.19 52.2 60 59c1.64 1 1.84 2.41 1.83 4.06-.01 6.5.01 13.03.01 19.55z" fill="#2297d1"></path><path d="M45.19 85.87V99.5c0 2.3-.74 3-2.77 1.57a2.23 2.23 0 0 0-.5-.32c-5-1.75-6.37-5.31-5.82-10.38.44-4.1 0-8.29.11-12.43a4.21 4.21 0 0 0-2.41-4.29C29.31 71.19 25 68.33 20.44 66c-2.88-1.46-4.22-3.33-3.77-6.51.24-1.72-.84-4.13.6-5s3.1 1.12 4.59 2c7 3.93 13.85 8 20.83 11.9a4.25 4.25 0 0 1 2.54 4.21c-.1 4.4-.03 8.82-.04 13.27z" fill="#2297d1"></path><path d="M28.55 86.1c-.36 1.7 1 4.54-.81 5.52S24 90 22 89.3c-4.84-1.77-6.1-5.32-5.35-10 .29-1.88-1-4.5.85-5.49 1.55-.83 3.23 1.38 4.93 2.08a6.68 6.68 0 0 1 .76.46c5.81 3.2 5.35 2.37 5.36 9.75z" fill="#e8322b"></path></svg></svg> <!----></g></g> <g transform="translate(67,9.108345031738281)"><g data-gra="path-name" fill-rule="" class="tp-name iconsvg-namesvg" transform="translate(0,0)"><g transform="scale(1)"><g><path d="M32.29 2.95L32.29 2.95 17.46-13.61 9.25-13.61 9.25 0.47 19.12-2.05 19.73 0.22 8.39 3.13Q8.28 3.17 8.1 3.17L8.1 3.17Q7.63 3.17 7.34 2.92L7.34 2.92Q6.91 2.59 6.91 1.98L6.91 1.98 6.91-13.61 2.27-13.61 2.27-15.98 6.91-15.98 6.91-29.02 9.25-29.02 9.25-15.98 34.09-15.98 34.09-13.61 20.63-13.61 34.06 1.4 32.29 2.95ZM33.37-27L12.85-19.55 12.02-21.78 32.54-29.23 33.37-27ZM69.88-9.9L69.88-9.9 67.86-10.3Q68-10.22 68.11-10.08L68.11-10.08Q68.47-9.76 68.47-9.25L68.47-9.25 68.47 1.87Q68.47 2.38 68.13 2.72 67.79 3.06 67.28 3.06L67.28 3.06 40.72 3.06Q40.21 3.06 39.87 2.72 39.53 2.38 39.53 1.87L39.53 1.87 39.53-9.25Q39.53-9.76 39.85-10.08L39.85-10.08Q40-10.22 40.14-10.3L40.14-10.3 38.09-9.9 37.66-12.24 52.63-15.19 37.87-15.19 37.87-17.53 52.81-17.53 52.81-20.16 39.06-20.16 39.06-22.54 52.81-22.54 52.81-25.13 38.56-25.13 38.56-27.5 52.81-27.5 52.81-29.02 55.19-29.02 55.19-27.5 69.44-27.5 69.44-25.13 55.19-25.13 55.19-22.54 68.94-22.54 68.94-20.16 55.19-20.16 55.19-17.53 70.13-17.53 70.13-15.19 55.37-15.19 70.34-12.24 69.88-9.9ZM54-13.03L40.86-10.44 67.14-10.44 54-13.03ZM66.1-4.86L66.1-8.06 41.9-8.06 41.9-4.86 66.1-4.86ZM41.9-2.48L41.9 0.68 66.1 0.68 66.1-2.48 41.9-2.48ZM106.13-24.55L106.13-24.55 91.19-24.55 91.19-21.31 103.18-21.31Q103.68-21.31 104.02-20.99 104.36-20.66 104.36-20.16L104.36-20.16 104.36-0.18Q104.36 0.32 104.02 0.65 103.68 0.97 103.18 0.97L103.18 0.97 94.82 0.97 94.82-1.33 101.99-1.33 101.99-18.97 91.19-18.97 91.19 3.13 88.81 3.13 88.81-18.97 77.98-18.97 77.98 0.97 75.64 0.97 75.64-20.16Q75.64-20.66 75.98-20.99 76.32-21.31 76.82-21.31L76.82-21.31 88.81-21.31 88.81-24.55 73.87-24.55 73.87-26.93 88.31-26.93 87.77-28.51 90-29.3 90.83-26.93 106.13-26.93 106.13-24.55ZM142.13 3.17L142.13 3.17 136.51 3.17Q136.01 3.17 135.67 2.83 135.32 2.48 135.32 1.98L135.32 1.98 135.32-10.04 127.3-10.04 123.34 3.78 121.07 3.13 124.85-10.04 120.46-10.04 120.46-12.38 142.09-12.38 142.09-10.04 137.7-10.04 137.7 0.79 142.13 0.79 142.13 3.17ZM112.57 3.13L112.57 3.13Q112.25 3.13 111.92 2.92L111.92 2.92Q111.38 2.56 111.38 1.94L111.38 1.94 111.38-19.26 113.76-19.26 113.76 0.11 119.99-2.63 120.96-0.47 113.08 3.02Q112.79 3.13 112.57 3.13L112.57 3.13ZM118.26-13.5L118.26-13.5 115.96-14.04 117.83-22.18 110.7-22.18Q110.09-22.18 109.73-22.75L109.73-22.75Q109.33-23.26 109.66-23.87L109.66-23.87 112.32-29.45 114.48-28.44 112.61-24.55 119.3-24.55Q119.84-24.55 120.2-24.12L120.2-24.12Q120.6-23.69 120.46-23.11L120.46-23.11 118.26-13.5ZM141.7-14.36L140.15-12.6 133.99-17.93 122.69-12.53 121.68-14.65 132.05-19.62 126.94-24.05 120.92-22.64 120.38-24.95 124.7-25.96 122.29-28.08 123.84-29.88 127.55-26.64 139.79-29.56 140.33-27.25 129.74-24.73 134.35-20.7 141.12-23.94 142.13-21.78 136.33-19.01 141.7-14.36ZM147.31-5.47L147.31-5.47Q146.59-5.47 146.27-6.08L146.27-6.08Q145.91-6.73 146.34-7.34L146.34-7.34 152.64-16.27 147.1-15.84Q146.38-15.84 146.02-16.38L146.02-16.38Q145.66-16.96 145.94-17.57L145.94-17.57 151.92-29.56 154.04-28.48 149-18.36 154.94-18.83Q155.7-18.9 156.06-18.25L156.06-18.25Q156.46-17.6 156.02-16.99L156.02-16.99 149.72-8.06 156.64-8.64 156.82-6.26 147.38-5.47 147.31-5.47ZM177.77-28.51L177.77-26.17 168.91-26.17 168.91 0.29 178.13 0.29 178.13 2.63 157.32 2.63 157.32 0.29 166.54 0.29 166.54-26.17 157.64-26.17 157.64-28.51 177.77-28.51ZM157.68-0.07L146.12 2.12 145.66-0.14 157.25-2.38 157.68-0.07Z" transform="translate(-2.2699999809265137, 29.8799991607666)"></path></g> <!----> <!----> <!----> <!----> <!----> <!----> <!----></g></g> <g data-gra="path-slogan" fill-rule="" class="tp-slogan iconsvg-slogansvg" fill="#333" transform="translate(0.18000030517578125,39.65999984741211)"><!----> <!----> <g transform="scale(1, 1)"><g transform="scale(1)"><path d="M5.02-3.70L2.20-3.70L2.20 0L1.03 0L1.03-8.58L5.02-8.58Q7.88-8.58 7.88-6.28L7.88-6.28Q7.88-4.88 6.66-4.22L6.66-4.22Q7.69-3.94 7.69-2.58L7.69-2.58L7.78-1.03Q7.73-0.38 8.20-0.19L8.20-0.19L8.20 0L6.75 0Q6.61-0.61 6.56-2.16L6.56-2.16Q6.61-3.70 5.02-3.70L5.02-3.70ZM5.11-7.64L2.20-7.64L2.20-4.69L4.92-4.69Q6.66-4.69 6.66-6.19L6.66-6.19Q6.66-7.64 5.11-7.64L5.11-7.64ZM15.19 0L14.34-2.48L10.88-2.48L9.98 0L8.81 0L12.05-8.58L13.36-8.58L16.45 0L15.19 0ZM12.61-7.31L11.25-3.52L13.92-3.52L12.66-7.31L12.61-7.31ZM24.28-4.27L24.28-4.27Q24.09-7.64 21.28-7.83L21.28-7.83Q18.42-7.69 18.28-4.27L18.28-4.27Q18.42-0.94 21.28-0.80L21.28-0.80Q24.09-0.98 24.28-4.27ZM25.45-4.27L25.45-4.27Q25.17 0 21.28 0.14L21.28 0.14Q17.34 0 17.06-4.27L17.06-4.27Q17.30-8.72 21.28-8.81L21.28-8.81Q25.17-8.67 25.45-4.27ZM27.98-5.06L32.48-5.06L32.48-8.58L33.66-8.58L33.66 0L32.48 0L32.48-3.98L27.98-3.98L27.98 0L26.81 0L26.81-8.58L27.98-8.58L27.98-5.06ZM42.23-4.27L42.23-4.27Q42.05-7.64 39.23-7.83L39.23-7.83Q36.38-7.69 36.23-4.27L36.23-4.27Q36.38-0.94 39.23-0.80L39.23-0.80Q42.05-0.98 42.23-4.27ZM43.41-4.27L43.41-4.27Q43.13 0 39.23 0.14L39.23 0.14Q35.30 0 35.02-4.27L35.02-4.27Q35.25-8.72 39.23-8.81L39.23-8.81Q43.13-8.67 43.41-4.27ZM46.17-8.58L50.48-1.64L50.48-8.58L51.61-8.58L51.61 0L50.30 0L45.94-6.94L45.89-6.94L45.89 0L44.77 0L44.77-8.58L46.17-8.58ZM59.81-3.61L57.19-3.61L57.19-4.59L60.94-4.59L60.94 0L60.19 0L59.91-1.08Q58.92 0.09 57.09 0.14L57.09 0.14Q55.36 0.14 54.42-0.75L54.42-0.75Q53.02-2.06 53.06-4.36L53.06-4.36Q53.39-8.63 57.14-8.81L57.14-8.81Q60.33-8.63 60.80-6L60.80-6L59.67-6Q59.20-7.78 57.09-7.83L57.09-7.83Q54.42-7.64 54.28-4.31L54.28-4.31Q54.28-0.75 57.14-0.75L57.14-0.75Q58.17-0.75 58.92-1.31L58.92-1.31Q59.86-2.06 59.81-3.61L59.81-3.61ZM63.52 0L62.86 0L62.86-1.27L64.13-1.27L64.13-0.09Q64.13 1.45 62.86 1.69L62.86 1.69L62.86 1.08Q63.52 0.98 63.52 0L63.52 0ZM76.55-6.05L76.55-6.05L75.42-6.05Q75-7.78 73.03-7.83L73.03-7.83Q70.31-7.69 70.22-4.36L70.22-4.36Q70.22-0.80 73.08-0.80L73.08-0.80Q75.05-0.84 75.52-3.19L75.52-3.19L76.64-3.19Q76.13 0.05 72.84 0.14L72.84 0.14Q69.09 0 69-4.31L69-4.31Q69.19-8.63 73.03-8.81L73.03-8.81Q76.08-8.72 76.55-6.05ZM79.17-5.06L83.67-5.06L83.67-8.58L84.84-8.58L84.84 0L83.67 0L83.67-3.98L79.17-3.98L79.17 0L78 0L78-8.58L79.17-8.58L79.17-5.06ZM92.30 0L91.45-2.48L87.98-2.48L87.09 0L85.92 0L89.16-8.58L90.47-8.58L93.56 0L92.30 0ZM89.72-7.31L88.36-3.52L91.03-3.52L89.77-7.31L89.72-7.31ZM96-8.58L100.31-1.64L100.31-8.58L101.44-8.58L101.44 0L100.13 0L95.77-6.94L95.72-6.94L95.72 0L94.59 0L94.59-8.58L96-8.58ZM109.64-3.61L107.02-3.61L107.02-4.59L110.77-4.59L110.77 0L110.02 0L109.73-1.08Q108.75 0.09 106.92 0.14L106.92 0.14Q105.19 0.14 104.25-0.75L104.25-0.75Q102.84-2.06 102.89-4.36L102.89-4.36Q103.22-8.63 106.97-8.81L106.97-8.81Q110.16-8.63 110.63-6L110.63-6L109.50-6Q109.03-7.78 106.92-7.83L106.92-7.83Q104.25-7.64 104.11-4.31L104.11-4.31Q104.11-0.75 106.97-0.75L106.97-0.75Q108-0.75 108.75-1.31L108.75-1.31Q109.69-2.06 109.64-3.61L109.64-3.61ZM119.72-6.05L119.72-6.05L118.59-6.05Q118.17-7.78 116.20-7.83L116.20-7.83Q113.48-7.69 113.39-4.36L113.39-4.36Q113.39-0.80 116.25-0.80L116.25-0.80Q118.22-0.84 118.69-3.19L118.69-3.19L119.81-3.19Q119.30 0.05 116.02 0.14L116.02 0.14Q112.27 0 112.17-4.31L112.17-4.31Q112.36-8.63 116.20-8.81L116.20-8.81Q119.25-8.72 119.72-6.05ZM122.34-5.06L126.84-5.06L126.84-8.58L128.02-8.58L128.02 0L126.84 0L126.84-3.98L122.34-3.98L122.34 0L121.17 0L121.17-8.58L122.34-8.58L122.34-5.06ZM135.47-3.19L135.47-8.58L136.64-8.58L136.64-3.05Q136.50 0.05 133.13 0.14L133.13 0.14Q129.98 0.05 129.84-2.86L129.84-2.86L129.84-8.58L131.02-8.58L131.02-3.19Q131.06-0.84 133.17-0.80L133.17-0.80Q135.47-0.84 135.47-3.19L135.47-3.19ZM139.83-8.58L144.14-1.64L144.14-8.58L145.27-8.58L145.27 0L143.95 0L139.59-6.94L139.55-6.94L139.55 0L138.42 0L138.42-8.58L139.83-8.58ZM157.55-6.05L157.55-6.05L156.42-6.05Q156-7.78 154.03-7.83L154.03-7.83Q151.31-7.69 151.22-4.36L151.22-4.36Q151.22-0.80 154.08-0.80L154.08-0.80Q156.05-0.84 156.52-3.19L156.52-3.19L157.64-3.19Q157.13 0.05 153.84 0.14L153.84 0.14Q150.09 0 150-4.31L150-4.31Q150.19-8.63 154.03-8.81L154.03-8.81Q157.08-8.72 157.55-6.05ZM159.19-8.58L160.36-8.58L160.36 0L159.19 0L159.19-8.58ZM164.53-7.59L161.63-7.59L161.63-8.58L168.56-8.58L168.56-7.59L165.66-7.59L165.66 0L164.53 0L164.53-7.59ZM176.53-8.58L173.30-3.47L173.30 0L172.13 0L172.13-3.47L168.89-8.58L170.25-8.58L172.69-4.45L175.17-8.58L176.53-8.58Z" transform="translate(-1.03125, 8.8125)"></path></g></g></g></g></g><defs v-gra="od"></defs></svg>